<svg width="56" height="29" fill="none" xmlns="http://www.w3.org/2000/svg"><path fill-rule="evenodd" clip-rule="evenodd" d="M27.3 28.987c6.502-.01 14.373-.024 14.592-.043a14.905 14.905 0 0 0 9.144-4.197A14.396 14.396 0 0 0 55.368 14.5a14.214 14.214 0 0 0-1.107-5.56 14.422 14.422 0 0 0-3.199-4.712 14.721 14.721 0 0 0-4.798-3.142A14.92 14.92 0 0 0 41.892.05C41.464.015 19.024-.002 18.593 0H0c12.015.05 10.52 3.984 8.898 8.253-1.207 3.177-2.484 6.54 1.684 8.623 8.643 4.322 17.66 10.511 16.718 12.111Z" fill="#EB67B6"/></svg>