<svg width="79" height="33" fill="none" xmlns="http://www.w3.org/2000/svg"><path fill-rule="evenodd" clip-rule="evenodd" d="M77.756 10.175A16.34 16.34 0 0 1 79 16.5a16.478 16.478 0 0 1-4.871 11.659A16.682 16.682 0 0 1 62.399 33H16.6a16.653 16.653 0 0 1-11.739-4.833A16.45 16.45 0 0 1 0 16.5c0-4.376 1.75-8.573 4.862-11.667A16.653 16.653 0 0 1 16.602 0h45.796c2.183-.01 4.346.41 6.365 1.237a16.537 16.537 0 0 1 5.396 3.575 16.423 16.423 0 0 1 3.597 5.363ZM6.89 26.215a13.973 13.973 0 0 0 9.711 4.13l21.54-.024 24.257.024a13.973 13.973 0 0 0 9.712-4.13c8.477-8.557 2.08-23.378-9.712-23.56H16.601a13.973 13.973 0 0 0-9.71 4.13c-5.267 5.316-5.267 14.114 0 19.43Z" fill="#fff"/></svg>