<svg width="50" height="50" fill="none" xmlns="http://www.w3.org/2000/svg"><path d="M25 0C11.193 0 0 11.193 0 25s11.193 25 25 25 25-11.193 25-25S38.807 0 25 0ZM12.4 10.562l4.449 1.398c.589.193.981.74 1.05 1.3l.25 2.45 20.148 2.25c.865.167 1.473.948 1.351 1.751l-1.25 7.05c-.16.737-.77 1.242-1.45 1.25H19.049l-.35 2h16.997c.89.031 1.54.708 1.55 1.498-.036.902-.763 1.492-1.55 1.502H16.898c-.949-.079-1.645-.83-1.499-1.749l.8-4.4-1.252-12.302L11.5 13.46c-.4-.133-.7-.384-.9-.75a1.577 1.577 0 0 1 .65-2.051 1.42 1.42 0 0 1 1.15-.098Zm6.774 23.312a2.344 2.344 0 1 1 0 4.688 2.344 2.344 0 0 1 0-4.688Zm13.758 0a2.344 2.344 0 1 1 0 4.688 2.344 2.344 0 0 1 0-4.688Z" fill="#000"/></svg>