<svg width="216" height="272" fill="none" xmlns="http://www.w3.org/2000/svg"><path d="m214.578 138.835-103.125 131.25a4.693 4.693 0 0 1-3.633 1.725 4.69 4.69 0 0 1-3.632-1.725L1.063 138.835a4.571 4.571 0 0 1 0-5.86L104.188 1.725A4.676 4.676 0 0 1 107.82 0a4.686 4.686 0 0 1 3.633 1.725l103.125 131.25a4.569 4.569 0 0 1 0 5.86Zm-102.07 114.726 91.055-115.898-91.055-41.368v157.266Zm-9.375-157.266-91.055 41.368 91.055 115.898V96.295Zm0-10.312V18.249L20.281 123.717l82.852-37.734Zm9.375 0 82.851 37.734-82.851-105.468v67.734Z" fill="#F8F8F8"/></svg>